<svg xmlns="http://www.w3.org/2000/svg" viewBox="0 0 200 260" role="img" aria-label="Chief Hot Wash roast">
<rect width="200" height="260" fill="none"/>
<ellipse cx="100" cy="214" rx="46" ry="10" fill="#000" opacity="0.35"/>
<path d="M70 150 h60 l12 58 h-84 z" fill="#16324a" stroke="#f5a623" stroke-width="3"/>
<path d="M78 168 h44 v8 h-44 z" fill="#f5a623"/>
<circle cx="100" cy="96" r="46" fill="#e6c2a0" stroke="#1a1203" stroke-width="3"/>
<path d="M58 92 q42 -58 84 0 q-10 18 -42 16 q-32 2 -42 -16 z" fill="#3d4f63"/>
<circle cx="82" cy="98" r="4" fill="#1a1203"/><circle cx="112" cy="98" r="4" fill="#1a1203"/>
<path d="M70 88 q12 -10 22 0 M108 88 q12 -10 22 0" stroke="#1a1203" stroke-width="3" fill="none"/>
<path d="M74 116 q18 14 36 0" stroke="#1a1203" stroke-width="3" fill="none"/>
<rect x="86" y="132" width="28" height="10" rx="2" fill="#f4f7fb"/>
<path d="M150 155 L176 130" stroke="#8fbf9f" stroke-width="10" stroke-linecap="round"/>
<rect x="118" y="176" width="22" height="16" rx="3" fill="#f4f7fb" stroke="#1a1203"/>
<path d="M122 184 h14" stroke="#e15a4a" stroke-width="2"/>
</svg>